<svg width="214" height="40" viewBox="0 0 214 40" fill="none" xmlns="http://www.w3.org/2000/svg">
<path fill-rule="evenodd" clip-rule="evenodd" d="M60.2535 28.7725C68.6589 28.7725 71.3235 24.7996 71.3235 19.8987C71.3235 14.9979 68.6589 11.025 60.2535 11.025C51.8481 11.025 49.0045 14.9979 49.0045 19.8987C49.0045 24.7996 51.8481 28.7725 60.2535 28.7725ZM60.211 24.5776C64.6254 24.5776 65.543 22.4828 65.543 19.8987C65.543 17.3146 64.6254 15.2198 60.211 15.2198C55.7967 15.2198 54.785 17.3146 54.785 19.8987C54.785 22.4828 55.7967 24.5776 60.211 24.5776Z" fill="#EA0029"/>
<path d="M92.0368 11.8317C92.0368 11.5643 92.2524 11.3476 92.5185 11.3476H97.3355C97.6016 11.3476 97.8172 11.5643 97.8172 11.8317V28.1271C97.8172 28.3944 97.6016 28.6111 97.3355 28.6111H92.5185C92.2524 28.6111 92.0368 28.3944 92.0368 28.1271V11.8317Z" fill="#EA0029"/>
<path d="M101.831 11.3476C101.565 11.3476 101.35 11.5643 101.35 11.8317V28.1271C101.35 28.3944 101.565 28.6111 101.831 28.6111H106.648C106.914 28.6111 107.13 28.3944 107.13 28.1271V18.7006L111.815 28.3395C111.896 28.5057 112.064 28.6111 112.248 28.6111H115.024C115.205 28.6111 115.371 28.5093 115.453 28.3475L120.457 18.5136V28.1271C120.457 28.3944 120.673 28.6111 120.939 28.6111H125.756C126.022 28.6111 126.238 28.3944 126.238 28.1271V11.8317C126.238 11.5643 126.022 11.3476 125.756 11.3476H119.468C119.287 11.3476 119.121 11.4499 119.039 11.6124L113.633 22.3004L108.705 11.6279C108.626 11.457 108.455 11.3476 108.268 11.3476H101.831Z" fill="#EA0029"/>
<path d="M79.673 11.8317C79.673 11.5643 79.4574 11.3476 79.1913 11.3476H74.3743C74.1082 11.3476 73.8926 11.5643 73.8926 11.8317V28.1271C73.8926 28.3944 74.1082 28.6111 74.3743 28.6111H88.7333C88.971 28.6111 89.1732 28.4368 89.2094 28.2007L89.7034 24.9739C89.7483 24.6807 89.5226 24.4163 89.2273 24.4163H79.673V11.8317Z" fill="#EA0029"/>
<path fill-rule="evenodd" clip-rule="evenodd" d="M130.573 11.3476C130.307 11.3476 130.091 11.5643 130.091 11.8317V28.1271C130.091 28.3944 130.307 28.6111 130.573 28.6111H135.39C135.656 28.6111 135.872 28.3944 135.872 28.1271V23.2869H142.134C142.167 23.2871 142.2 23.2869 142.234 23.2869C147.888 23.2869 149.681 20.6142 149.681 17.3173C149.681 14.0203 147.888 11.3476 142.234 11.3476C142.2 11.3476 142.167 11.3477 142.134 11.3479L130.573 11.3476ZM135.872 15.5425V19.092H142.149C143.599 19.092 143.9 18.3324 143.9 17.3173C143.9 16.3021 143.599 15.5425 142.149 15.5425H135.872Z" fill="#EA0029"/>
<path d="M194.8 11.3476C194.534 11.3476 194.319 11.5643 194.319 11.8317V14.7358C194.319 15.0031 194.534 15.2198 194.8 15.2198H201.062V28.1271C201.062 28.3944 201.278 28.6111 201.544 28.6111H206.361C206.627 28.6111 206.843 28.3944 206.843 28.1271V15.2198H212.536C212.772 15.2198 212.973 15.0488 213.012 14.8154L213.493 11.9112C213.542 11.6162 213.316 11.3476 213.018 11.3476H194.8Z" fill="#EA0029"/>
<path fill-rule="evenodd" clip-rule="evenodd" d="M152.732 11.3476C152.465 11.3476 152.25 11.5643 152.25 11.8317V28.1271C152.25 28.3944 152.465 28.6111 152.732 28.6111H166.701C166.728 28.6113 166.756 28.6111 166.784 28.6111C171.476 28.6111 172.963 26.4441 172.963 23.7709C172.963 21.6288 172.008 19.8116 169.214 19.1742C171.025 18.4484 171.679 17.0938 171.679 15.5425C171.679 13.2257 170.222 11.3476 165.626 11.3476C165.61 11.3476 165.593 11.3477 165.577 11.3477L152.732 11.3476ZM165.577 24.739H158.03V21.8348H165.577V21.8395C165.632 21.8364 165.69 21.8348 165.75 21.8348C166.936 21.8348 167.183 22.4563 167.183 23.2869C167.183 24.1175 166.936 24.739 165.75 24.739C165.69 24.739 165.632 24.7374 165.577 24.7342V24.739ZM164.614 17.9626H158.03V15.2198H164.614V15.2206C165.675 15.2442 165.898 15.823 165.898 16.5912C165.898 17.3594 165.675 17.9382 164.614 17.9619V17.9626Z" fill="#EA0029"/>
<path d="M176.014 11.3476C175.748 11.3476 175.532 11.5643 175.532 11.8317V28.1271C175.532 28.3944 175.748 28.6111 176.014 28.6111H191.91C192.176 28.6111 192.392 28.3944 192.392 28.1271V25.223C192.392 24.9557 192.176 24.739 191.91 24.739H181.313V21.8348H188.291C188.526 21.8348 188.727 21.6638 188.766 21.4304L189.248 18.5262C189.296 18.2312 189.07 17.9626 188.772 17.9626H181.313V15.2198H191.91C192.176 15.2198 192.392 15.0031 192.392 14.7358V11.8317C192.392 11.5643 192.176 11.3476 191.91 11.3476H176.014Z" fill="#EA0029"/>
<path fill-rule="evenodd" clip-rule="evenodd" d="M40.3583 18.7883C40.6803 19.5636 40.6803 20.4365 40.3583 21.2117L35.4109 33.1217C35.0917 33.89 34.4826 34.4992 33.7174 34.8153L21.7332 39.7651C20.975 40.0783 20.1247 40.0783 19.3664 39.7651L7.38226 34.8153C6.61712 34.4992 6.00806 33.89 5.68893 33.1217L0.741536 21.2117C0.419485 20.4364 0.419491 19.5636 0.741536 18.7883L5.68893 6.87816C6.00807 6.10992 6.61715 5.50078 7.38226 5.18475L19.3664 0.234893C20.1247 -0.078298 20.975 -0.0782973 21.7332 0.234893L33.7174 5.18475C34.4825 5.50078 35.0917 6.1099 35.4109 6.87816L40.3583 18.7883ZM33.8389 20.3692C34.475 19.7243 34.6651 18.7477 34.3192 17.9017L32.4492 13.3276C32.3804 13.1593 32.1759 13.1019 32.0331 13.2106L29.7909 14.9186L29.7702 12.0078C29.7638 11.1094 29.2363 10.3011 28.4289 9.95249L23.7386 7.92731C23.558 7.84932 23.3583 7.98528 23.3583 8.18623V10.0959C23.3583 10.7956 23.6761 11.4553 24.2178 11.8807L29.0544 15.6784L29.0544 23.7505L20.4382 31.4329L11.8218 23.7505V15.6784L16.6586 11.8807C17.2003 11.4553 17.518 10.7956 17.518 10.0959V8.18623C17.518 7.98527 17.3182 7.84932 17.1376 7.92731L12.4473 9.95249C11.6399 10.3011 11.1126 11.1094 11.1061 12.0078L11.0853 14.9186L8.84324 13.2106C8.70044 13.1019 8.49595 13.1593 8.42715 13.3276L6.55702 17.9017C6.21117 18.7477 6.40136 19.7243 7.03746 20.3692L10.3724 23.7505L7.13562 23.7433C6.9392 23.7428 6.80615 23.9483 6.88269 24.1338L8.88964 28.998C9.13488 29.5923 9.61748 30.05 10.2145 30.2543L19.7441 33.516C20.1946 33.6702 20.6817 33.6702 21.1321 33.516L30.6619 30.2543C31.2589 30.05 31.7413 29.5923 31.9866 28.998L33.9937 24.1338C34.0702 23.9483 33.9371 23.7428 33.7407 23.7433L30.504 23.7505L33.8389 20.3692Z" fill="#EA0029"/>
</svg>
